<svg fill="none" height="100%" width="100%" viewBox="0 0 650 400" xmlns:xlink="http://www.w3.org/1999/xlink" xmlns="http://www.w3.org/2000/svg"><g visibility="hidden" id="i0"><g transform="translate(402,399)"><animateTransform repeatCount="indefinite" type="translate" attributeName="transform" dur="16.233s" begin="0s" calcMode="spline" values="402 399; 402 399; 402 399" keyTimes="0; 1; 1" keySplines="0 0 1 1; 0 0 1 1" fill="freeze" /><g transform="scale(0,0)"><animateTransform repeatCount="indefinite" type="scale" attributeName="transform" dur="16.233s" begin="0s" calcMode="spline" values="0 0; 0 0; 1 1; 1 1" keyTimes="0; 1; 1; 1" keySplines="0 0 1 1; 0.333 0 0.667 1; 0.333 0 0.667 1" fill="freeze" /><g transform="translate(-77,-199)"><g id="i1" transform="matrix(1,0,0,1,76.623,85.963)"><rect height="227.926" width="337.246" y="-113.963" x="-168.623" stroke-width="0" stroke="#979797" fill="#f6a826" /></g></g></g></g></g><g visibility="hidden" id="i2"><g transform="translate(402.673,400.81)"><g transform="scale(0,0)"><animateTransform repeatCount="indefinite" type="scale" attributeName="transform" dur="16.233s" begin="0s" calcMode="spline" values="0 0; 0 0; 1 1; 1 1; 1 1" keyTimes="0; 1; 1; 1; 1" keySplines="0 0 1 1; 0.333 0 0.667 1; 0.333 0 0.667 1; 0.333 0 0.667 1" fill="freeze" /><g transform="translate(-66.144,-144.135)"><path d="M0.25,144.02C0.25,144.02,0.25,29.669,0.25,29.669C0.25,29.669,64.644,0.25,64.644,0.25C64.644,0.25,129.037,29.669,129.037,29.669C129.037,29.669,129.037,144.02,129.037,144.02C129.037,144.02,0.25,144.02,0.25,144.02Z" fill="#fae9b5" /></g></g></g></g><g visibility="hidden" id="i3"><g transform="translate(171.934,400.649)"><g transform="scale(0,0)"><animateTransform repeatCount="indefinite" type="scale" attributeName="transform" dur="16.233s" begin="0s" calcMode="spline" values="0 0; 0 0; 1 1; 1 1; 1 1" keyTimes="0; 1; 1; 1; 1" keySplines="0 0 1 1; 0.333 0 0.667 1; 0.333 0 0.667 1; 0.333 0 0.667 1" fill="freeze" /><g transform="translate(-86.984,-144.796)"><path d="M0.25,144.342C0.25,144.342,0.25,40.316,0.25,40.316C0.25,40.316,86.983,0.25,86.983,0.25C86.983,0.25,173.718,40.316,173.718,40.316C173.718,40.316,173.718,144.342,173.718,144.342C173.718,144.342,0.25,144.342,0.25,144.342Z" fill="#d1c8ba" /></g></g></g></g><g visibility="hidden" id="i4"><g transform="translate(401.673,253.235)"><animateTransform repeatCount="indefinite" type="translate" attributeName="transform" dur="16.233s" begin="0s" calcMode="spline" values="401.673 253.235; 401.673 253.235; 401.673 253.235" keyTimes="0; 1; 1" keySplines="0 0 1 1; 0 0 1 1" fill="freeze" /><g transform="scale(0,0)"><animateTransform repeatCount="indefinite" type="scale" attributeName="transform" dur="16.233s" begin="0s" calcMode="spline" values="0 0; 0 0; 1 1; 1 1; 1 1" keyTimes="0; 1; 1; 1; 1" keySplines="0 0 1 1; 0.333 0 0.667 1; 0.333 0 0.667 1; 0.333 0 0.667 1" fill="freeze" /><g transform="translate(-76.457,-7.021)"><g id="i5" transform="matrix(1,0,0,1,75.957,22.021)"><path fill="#7d7d7d" d="M1.263,-21.416C0.458,-21.771,-0.458,-21.771,-1.262,-21.416C-1.262,-21.416,-73.844,10.633,-73.844,10.633C-74.976,11.133,-75.707,12.254,-75.707,13.491C-75.707,13.491,-75.707,20.426,-75.707,20.426C-75.707,20.857,-75.489,21.261,-75.127,21.496C-74.765,21.731,-74.309,21.769,-73.914,21.594C-73.914,21.594,-1.262,-10.484,-1.262,-10.484C-0.458,-10.84,0.458,-10.84,1.263,-10.484C1.263,-10.484,73.914,21.596,73.914,21.596C74.31,21.771,74.766,21.733,75.127,21.498C75.49,21.262,75.707,20.859,75.707,20.428C75.707,20.428,75.707,13.493,75.707,13.493C75.707,12.256,74.977,11.135,73.845,10.635C73.845,10.635,1.263,-21.416,1.263,-21.416Z" /></g></g></g></g></g><g visibility="hidden" id="i6"><g transform="translate(172.253,256.218)"><animateTransform repeatCount="indefinite" type="translate" attributeName="transform" dur="16.233s" begin="0s" calcMode="spline" values="172.253 256.218; 172.253 256.218; 172.253 252.218; 172.253 253.218" keyTimes="0; 1; 1; 1" keySplines="0 0 1 1; 0.333 0 0.667 1; 0.333 0 0.667 1" fill="freeze" /><g transform="scale(0,0)"><animateTransform repeatCount="indefinite" type="scale" attributeName="transform" dur="16.233s" begin="0s" calcMode="spline" values="0 0; 0 0; 1 1; 1 1; 1 1" keyTimes="0; 1; 1; 1; 1" keySplines="0 0 1 1; 0.333 0 0.667 1; 0.333 0 0.667 1; 0.333 0 0.667 1" fill="freeze" /><g transform="translate(-98.213,-6.003)"><g id="i5" transform="matrix(1,0,0,1,98.213,27.003)"><path fill="#d0021b" d="M-1.608,-15.459C-0.788,-15.821,0.148,-15.821,0.968,-15.459C0.968,-15.459,96.17,26.578,96.17,26.578C96.566,26.753,97.022,26.716,97.383,26.48C97.746,26.245,97.963,25.842,97.963,25.41C97.963,25.41,97.963,18.518,97.963,18.518C97.963,17.254,97.218,16.11,96.063,15.601C96.063,15.601,0.968,-26.391,0.968,-26.391C0.148,-26.753,-0.788,-26.753,-1.608,-26.391C-1.608,-26.391,-96.062,15.315,-96.062,15.315C-97.217,15.825,-97.963,16.969,-97.963,18.232C-97.963,18.232,-97.963,25.125,-97.963,25.125C-97.963,25.557,-97.745,25.96,-97.383,26.195C-97.022,26.431,-96.566,26.468,-96.171,26.294C-96.171,26.294,-1.608,-15.459,-1.608,-15.459Z" /></g></g></g></g></g><g visibility="hidden" id="i7"><g transform="translate(172.438,400.925)"><g transform="scale(0,0)"><animateTransform repeatCount="indefinite" type="scale" attributeName="transform" dur="16.233s" begin="0s" calcMode="spline" values="0 0; 0 0; 1 1; 1 1; 1 1" keyTimes="0; 1; 1; 1; 1" keySplines="0 0 1 1; 0.333 0 0.667 1; 0.333 0 0.667 1; 0.333 0 0.667 1" fill="freeze" /><g transform="translate(-67.591,-72.521)"><g id="i8" transform="matrix(1,0,0,1,67.091,36.021)"><path fill="#f8df91" d="M-61.841,-28.583C-61.841,-29.792,-60.862,-30.771,-59.653,-30.771C-59.653,-30.771,59.653,-30.771,59.653,-30.771C60.862,-30.771,61.841,-29.792,61.841,-28.583C61.841,-28.583,61.841,35.771,61.841,35.771C61.841,35.771,66.841,35.771,66.841,35.771C66.841,35.771,66.841,-28.583,66.841,-28.583C66.841,-32.547,63.617,-35.771,59.653,-35.771C59.653,-35.771,-59.653,-35.771,-59.653,-35.771C-63.616,-35.771,-66.841,-32.547,-66.841,-28.583C-66.841,-28.583,-66.841,35.771,-66.841,35.771C-66.841,35.771,-61.841,35.771,-61.841,35.771C-61.841,35.771,-61.841,-28.583,-61.841,-28.583Z" /></g><g id="i9" transform="matrix(1,0,0,1,67.091,38.521)"><path fill="#d69d67" d="M-61.841,33.271C-61.841,33.271,-61.841,-31.083,-61.841,-31.083C-61.841,-32.292,-60.862,-33.271,-59.653,-33.271C-59.653,-33.271,59.653,-33.271,59.653,-33.271C60.861,-33.271,61.841,-32.292,61.841,-31.083C61.841,-31.083,61.841,33.271,61.841,33.271C61.841,33.271,-61.841,33.271,-61.841,33.271Z" /></g><g id="i10" transform="matrix(1,0,0,1,66.872,19.991)"><path fill="#be8249" d="M61.622,2.5C61.622,2.5,-61.622,2.5,-61.622,2.5C-61.622,2.5,-61.622,-2.5,-61.622,-2.5C-61.622,-2.5,61.622,-2.5,61.622,-2.5C61.622,-2.5,61.622,2.5,61.622,2.5Z" /></g><g id="i11" transform="matrix(1,0,0,1,66.872,39.02)"><path fill="#be8249" d="M61.622,2.5C61.622,2.5,-61.622,2.5,-61.622,2.5C-61.622,2.5,-61.622,-2.5,-61.622,-2.5C-61.622,-2.5,61.622,-2.5,61.622,-2.5C61.622,-2.5,61.622,2.5,61.622,2.5Z" /></g><g id="i5" transform="matrix(1,0,0,1,66.872,58.049)"><path fill="#be8249" d="M61.622,2.5C61.622,2.5,-61.622,2.5,-61.622,2.5C-61.622,2.5,-61.622,-2.5,-61.622,-2.5C-61.622,-2.5,61.622,-2.5,61.622,-2.5C61.622,-2.5,61.622,2.5,61.622,2.5Z" /></g></g></g></g></g><g visibility="hidden" id="i12"><g transform="translate(402.175,401.424)"><g transform="scale(0,0)"><animateTransform repeatCount="indefinite" type="scale" attributeName="transform" dur="16.233s" begin="0s" calcMode="spline" values="0 0; 0 0; 1 1; 1 1; 1 1" keyTimes="0; 1; 1; 1; 1" keySplines="0 0 1 1; 0.333 0 0.667 1; 0.333 0 0.667 1; 0.333 0 0.667 1" fill="freeze" /><g transform="translate(-28.615,-97.521)"><g id="i11" transform="matrix(1,0,0,1,27.614,48.521)"><path fill="#b36113" d="M-27.364,48.271C-27.364,48.271,-27.364,-46.083,-27.364,-46.083C-27.364,-47.292,-26.385,-48.271,-25.176,-48.271C-25.176,-48.271,25.176,-48.271,25.176,-48.271C26.385,-48.271,27.364,-47.292,27.364,-46.083C27.364,-46.083,27.364,48.271,27.364,48.271C27.364,48.271,-27.364,48.271,-27.364,48.271Z" /></g><path d="M45.598,55.51C45.598,59.369,42.469,62.499,38.61,62.499C34.75,62.499,31.621,59.369,31.621,55.51C31.621,51.651,34.75,48.521,38.61,48.521C42.469,48.521,45.598,51.651,45.598,55.51Z" fill="#f5a623" /></g></g></g></g><g visibility="hidden" id="i13"><g transform="translate(171.931,300.667)"><animateTransform repeatCount="indefinite" type="translate" attributeName="transform" dur="16.233s" begin="0s" calcMode="spline" values="171.931 300.667; 171.931 300.667; 171.931 300.667" keyTimes="0; 1; 1" keySplines="0 0 1 1; 0 0 1 1" fill="freeze" /><g transform="scale(0,0)"><animateTransform repeatCount="indefinite" type="scale" attributeName="transform" dur="16.233s" begin="0s" calcMode="spline" values="0 0; 0 0; 1.13 1.13; 1.13 1.13; 1 1; 1 1; 1 1" keyTimes="0; 1; 1; 1; 1; 1; 1" keySplines="0 0 1 1; 0.333 0 0.667 1; 0.333 0 0.667 1; 0.333 0 0.667 1; 0.333 0 0.667 1; 0.333 0 0.667 1" fill="freeze" /><g transform="translate(-10.884,-10.883)"><g id="i5" transform="matrix(1,0,0,1,10.884,10.883)"><path fill="#ffffff" d="M-10.634,0.003C-10.634,5.881,-5.868,10.633,0.003,10.633C5.872,10.633,10.634,5.881,10.634,0.003C10.634,-5.869,5.872,-10.633,0.003,-10.633C-5.868,-10.633,-10.634,-5.869,-10.634,0.003Z" /></g></g></g></g></g><g id="i14"><g transform="translate(576.907,400.54)"><animateTransform repeatCount="indefinite" type="translate" attributeName="transform" dur="16.233s" begin="0s" calcMode="spline" values="576.907 400.54; 576.907 400.54; 576.907 400.54" keyTimes="0; 1; 1" keySplines="0 0 1 1; 0 0 1 1" fill="freeze" /><g transform="scale(0,0)"><animateTransform repeatCount="indefinite" type="scale" attributeName="transform" dur="16.233s" begin="0s" calcMode="spline" values="0 0; 0 0; 1.05 1.05; 1.05 1.05; 1 1; 1 1" keyTimes="0; 1; 1; 1; 1; 1" keySplines="0 0 1 1; 0.333 0 0.667 1; 0.333 0 0.667 1; 0.333 0 0.667 1; 0.333 0 0.667 1" fill="freeze" /><g transform="translate(-57.301,-43.906)"><path d="M93.99,31.091C91.337,24.293,84.691,19.862,77.373,20.033C75.287,8.656,65.317,0.25,53.611,0.25C52.043,0.25,50.509,0.405,49.009,0.697C42.3,2.002,36.384,6.106,32.83,12.088C27.586,13.202,23.356,17.014,21.686,22.083C9.945,22.685,0.746,32.227,0.25,43.561C0.25,43.561,115.352,43.561,115.352,43.561C112.61,34.705,103.429,29.015,93.99,31.091Z" fill="#168d35" /></g></g></g></g><g visibility="hidden" id="i15"><g transform="translate(57.449,399.709)"><animateTransform repeatCount="indefinite" type="translate" attributeName="transform" dur="16.233s" begin="0s" calcMode="spline" values="57.449 399.709; 57.449 399.709; 57.449 399.709" keyTimes="0; 1; 1" keySplines="0 0 1 1; 0 0 1 1" fill="freeze" /><g transform="scale(0,0)"><animateTransform repeatCount="indefinite" type="scale" attributeName="transform" dur="16.233s" begin="0s" calcMode="spline" values="0 0; 0 0; 1.05 1.05; 1.05 1.05; 1 1; 1 1" keyTimes="0; 1; 1; 1; 1; 1" keySplines="0 0 1 1; 0.333 0 0.667 1; 0.333 0 0.667 1; 0.333 0 0.667 1; 0.333 0 0.667 1" fill="freeze" /><g transform="translate(-38.001,-24.736)"><path d="M60.533,12.348C59.715,12.348,58.914,12.432,58.133,12.551C54.681,5.284,47.293,0.25,38.713,0.25C30.033,0.25,22.57,5.405,19.178,12.813C17.986,12.52,16.75,12.348,15.472,12.348C7.791,12.348,1.429,17.977,0.25,25.223C0.25,25.223,75.752,25.223,75.752,25.223C74.545,18.17,68.461,12.348,60.533,12.348Z" fill="#168d35" /></g></g></g></g><g visibility="hidden" id="i16"><g transform="translate(509.088,70.615)"><g transform="scale(1,0)"><animateTransform repeatCount="indefinite" type="scale" attributeName="transform" dur="16.233s" begin="0s" calcMode="spline" values="1 0; 1 0; 1 1; 1 1; 1 1" keyTimes="0; 1; 1; 1; 1" keySplines="0 0 1 1; 0 0 1 1; 0 0 1 1; 0 0 1 1" fill="freeze" /><g transform="translate(-17.688,-29.065)"><path d="M0.25,28.88C0.25,28.88,36.125,28.88,36.125,28.88C36.125,28.88,36.125,0.25,36.125,0.25C36.125,0.25,0.25,0.25,0.25,0.25C0.25,0.25,0.25,28.88,0.25,28.88Z" fill="#f8df91" /></g></g></g></g><g visibility="hidden" id="i17"><g transform="translate(510.584,42)"><g transform="scale(0,1)"><animateTransform repeatCount="indefinite" type="scale" attributeName="transform" dur="16.233s" begin="0s" calcMode="spline" values="0 1; 0 1; 1 1; 1 1" keyTimes="0; 1; 1; 1" keySplines="0 0 1 1; 0 0 1 1; 0 0 1 1" fill="freeze" /><g transform="translate(-25.752,-19.549)"><path d="M0.25,2.438C0.25,1.23,1.229,0.25,2.438,0.25C2.438,0.25,47.066,0.25,47.066,0.25C48.274,0.25,49.254,1.23,49.254,2.438C49.254,2.438,49.254,17.661,49.254,17.661C49.254,18.87,48.274,19.849,47.066,19.849C47.066,19.849,2.438,19.849,2.438,19.849C1.229,19.849,0.25,18.87,0.25,17.661C0.25,17.661,0.25,2.438,0.25,2.438Z" fill="#7d7d7d" /></g></g></g></g><g visibility="hidden" id="i18"><g transform="translate(401.672,172.67)"><g transform="scale(0.9,0)"><animateTransform repeatCount="indefinite" type="scale" attributeName="transform" dur="16.233s" begin="0s" calcMode="spline" values="0.9 0; 0.9 0; 1 1; 1 1; 1 1" keyTimes="0; 1; 1; 1; 1" keySplines="0 0 1 1; 0 0 1 1; 0 0 1 1; 0 0 1 1" fill="freeze" /><g transform="translate(-186.869,-103.489)"><g id="i5" transform="matrix(1,0,0,1,186.369,51.99)"><path fill="#d0021b" d="M-183.338,51.739C-184.227,51.739,-185.051,51.297,-185.542,50.557C-186.031,49.818,-186.119,48.881,-185.771,48.066C-185.771,48.066,-144.82,-48.21,-144.82,-48.21C-143.911,-50.349,-141.805,-51.739,-139.483,-51.739C-139.483,-51.739,139.48,-51.739,139.48,-51.739C141.808,-51.739,143.908,-50.349,144.82,-48.21C144.82,-48.21,185.771,48.066,185.771,48.066C186.119,48.881,186.032,49.818,185.544,50.557C185.055,51.297,184.228,51.739,183.341,51.739C183.341,51.739,-183.338,51.739,-183.338,51.739Z" /></g></g></g></g></g><g visibility="hidden" id="i19"><g transform="translate(514.998,341.522)"><animateTransform repeatCount="indefinite" type="translate" attributeName="transform" dur="16.233s" begin="0s" calcMode="spline" values="514.998 341.522; 514.998 341.522; 514.998 341.522" keyTimes="0; 1; 1" keySplines="0 0 1 1; 0 0 1 1" fill="freeze" /><g transform="scale(0,0)"><animateTransform repeatCount="indefinite" type="scale" attributeName="transform" dur="16.233s" begin="0s" calcMode="spline" values="0 0; 0 0; 1.13 1.13; 1.13 1.13; 1 1; 1 1" keyTimes="0; 1; 1; 1; 1; 1" keySplines="0 0 1 1; 0.167 0.167 0.667 1; 0 0 1 1; 0.333 0 0.833 0.833; 0 0 1 1" fill="freeze" /><g transform="translate(-13.239,-25.542)"><path d="M0.25,48.646C0.25,49.855,1.229,50.834,2.438,50.834C2.438,50.834,24.038,50.834,24.038,50.834C25.247,50.834,26.227,49.855,26.227,48.646C26.227,48.646,26.227,2.439,26.227,2.439C26.227,1.23,25.247,0.25,24.038,0.25C24.038,0.25,2.438,0.25,2.438,0.25C1.229,0.25,0.25,1.23,0.25,2.439C0.25,2.439,0.25,48.646,0.25,48.646Z" fill="#ffffff" /></g></g></g></g><g visibility="hidden" id="i20"><g transform="translate(508.431,222.544)"><animateTransform repeatCount="indefinite" type="translate" attributeName="transform" dur="16.233s" begin="0s" calcMode="spline" values="508.431 222.544; 508.431 222.544; 508.431 222.544" keyTimes="0; 1; 1" keySplines="0 0 1 1; 0 0 1 1" fill="freeze" /><g transform="scale(0,0)"><animateTransform repeatCount="indefinite" type="scale" attributeName="transform" dur="16.233s" begin="0s" calcMode="spline" values="0 0; 0 0; 1.13 1.13; 1.13 1.13; 1 1; 1 1" keyTimes="0; 1; 1; 1; 1; 1" keySplines="0 0 1 1; 0.167 0.167 0.667 1; 0 0 1 1; 0.333 0 0.833 0.833; 0 0 1 1" fill="freeze" /><g transform="translate(-24.177,-25.541)"><path d="M0.25,48.645C0.25,49.854,1.229,50.833,2.438,50.833C2.438,50.833,45.917,50.833,45.917,50.833C47.126,50.833,48.105,49.854,48.105,48.645C48.105,48.645,48.105,2.439,48.105,2.439C48.105,1.23,47.126,0.25,45.917,0.25C45.917,0.25,2.438,0.25,2.438,0.25C1.229,0.25,0.25,1.23,0.25,2.439C0.25,2.439,0.25,48.645,0.25,48.645Z" fill="#f80000" /></g></g></g></g><g visibility="hidden" id="i21"><g transform="translate(401.171,213.416)"><animateTransform repeatCount="indefinite" type="translate" attributeName="transform" dur="16.233s" begin="0s" calcMode="spline" values="401.171 213.416; 401.171 213.416; 401.171 213.416" keyTimes="0; 1; 1" keySplines="0 0 1 1; 0 0 1 1" fill="freeze" /><g transform="scale(0,0)"><animateTransform repeatCount="indefinite" type="scale" attributeName="transform" dur="16.233s" begin="0s" calcMode="spline" values="0 0; 0 0; 1.13 1.13; 1.13 1.13; 1 1; 1 1" keyTimes="0; 1; 1; 1; 1; 1" keySplines="0 0 1 1; 0.167 0.167 0.667 1; 0 0 1 1; 0.333 0 0.833 0.833; 0 0 1 1" fill="freeze" /><g transform="translate(-13.238,-12.414)"><path d="M0.25,22.389C0.25,23.598,1.229,24.577,2.438,24.577C2.438,24.577,24.036,24.577,24.036,24.577C25.245,24.577,26.225,23.598,26.225,22.389C26.225,22.389,26.225,2.439,26.225,2.439C26.225,1.23,25.245,0.25,24.036,0.25C24.036,0.25,2.438,0.25,2.438,0.25C1.229,0.25,0.25,1.23,0.25,2.439C0.25,2.439,0.25,22.389,0.25,22.389Z" fill="#ffffff" /></g></g></g></g><g visibility="hidden" id="i22"><g transform="translate(293.91,222.544)"><animateTransform repeatCount="indefinite" type="translate" attributeName="transform" dur="16.233s" begin="0s" calcMode="spline" values="293.91 222.544; 293.91 222.544; 293.91 222.544" keyTimes="0; 1; 1" keySplines="0 0 1 1; 0 0 1 1" fill="freeze" /><g transform="scale(0,0)"><animateTransform repeatCount="indefinite" type="scale" attributeName="transform" dur="16.233s" begin="0s" calcMode="spline" values="0 0; 0 0; 1.13 1.13; 1.13 1.13; 1 1; 1 1" keyTimes="0; 1; 1; 1; 1; 1" keySplines="0 0 1 1; 0.167 0.167 0.667 1; 0 0 1 1; 0.333 0 0.833 0.833; 0 0 1 1" fill="freeze" /><g transform="translate(-24.178,-25.542)"><path d="M48.107,48.646C48.107,49.854,47.128,50.834,45.919,50.834C45.919,50.834,2.438,50.834,2.438,50.834C1.229,50.834,0.25,49.854,0.25,48.646C0.25,48.646,0.25,2.439,0.25,2.439C0.25,1.23,1.229,0.25,2.438,0.25C2.438,0.25,45.919,0.25,45.919,0.25C47.128,0.25,48.107,1.23,48.107,2.439C48.107,2.439,48.107,48.646,48.107,48.646Z" fill="#ffffff" /></g></g></g></g><g visibility="hidden" id="i23"><g transform="translate(296.096,341.525)"><animateTransform repeatCount="indefinite" type="translate" attributeName="transform" dur="16.233s" begin="0s" calcMode="spline" values="296.096 341.525; 296.096 341.525; 296.096 341.525" keyTimes="0; 1; 1" keySplines="0 0 1 1; 0 0 1 1" fill="freeze" /><g transform="scale(0,0)"><animateTransform repeatCount="indefinite" type="scale" attributeName="transform" dur="16.233s" begin="0s" calcMode="spline" values="0 0; 0 0; 1.13 1.13; 1.13 1.13; 1 1; 1 1" keyTimes="0; 1; 1; 1; 1; 1" keySplines="0 0 1 1; 0.167 0.167 0.667 1; 0 0 1 1; 0.333 0 0.833 0.833; 0 0 1 1" fill="freeze" /><g transform="translate(-13.24,-25.541)"><path d="M26.229,48.643C26.229,49.851,25.25,50.831,24.041,50.831C24.041,50.831,2.438,50.831,2.438,50.831C1.23,50.831,0.25,49.851,0.25,48.643C0.25,48.643,0.25,2.438,0.25,2.438C0.25,1.23,1.23,0.25,2.438,0.25C2.438,0.25,24.041,0.25,24.041,0.25C25.25,0.25,26.229,1.23,26.229,2.438C26.229,2.438,26.229,48.643,26.229,48.643Z" fill="#ffffff" /></g></g></g></g></svg>